<svg xmlns="http://www.w3.org/2000/svg" viewBox="0 0 114.02 112.48"><defs><style>.cls-1{fill:#35967a;}.cls-2{fill:#29183f;}</style></defs><g id="Layer_2" data-name="Layer 2"><g id="Layer_1-2" data-name="Layer 1"><path class="cls-1" d="M54.13,45.11h0A13.23,13.23,0,1,1,43.37,66,13.23,13.23,0,0,1,54.13,45.11m0-4a17.22,17.22,0,1,0,14.05,7.24,17.19,17.19,0,0,0-14.05-7.24Z"/><path class="cls-2" d="M105,61.94h0a5,5,0,1,1-2.88.92,5,5,0,0,1,2.88-.92m0-4a9,9,0,1,0,7.32,3.78A9,9,0,0,0,105,57.94Z"/><path class="cls-2" d="M26.61,72.93h0A5,5,0,0,1,30.68,75a5,5,0,0,1-8.12,5.77,5,5,0,0,1,4.05-7.87m0-4a9,9,0,1,0,7.33,3.78,9,9,0,0,0-7.33-3.78Z"/><path class="cls-2" d="M37.88,4h0A5,5,0,1,1,35,4.92,5,5,0,0,1,37.88,4m0-4A9,9,0,1,0,45.2,3.78,9,9,0,0,0,37.88,0Z"/><path class="cls-1" d="M33.36,29.12A35.86,35.86,0,0,0,20.67,71.19a8.79,8.79,0,0,1,.74-.6,9.06,9.06,0,0,1,2.82-1.32A31.85,31.85,0,0,1,54.11,26.48v-4h0A35.73,35.73,0,0,0,33.36,29.12Z"/><path class="cls-1" d="M83.36,37.56A35.81,35.81,0,0,0,54.11,22.48v4A31.85,31.85,0,0,1,85.55,63.63,31.82,31.82,0,0,1,34,83a8.78,8.78,0,0,1-2.19,2.24,8.45,8.45,0,0,1-.82.49A35.85,35.85,0,0,0,83.36,37.56Z"/><path class="cls-1" d="M95,29.27A49.78,49.78,0,0,1,104.28,58c.25,0,.5-.06.75-.06a9,9,0,0,1,3.24.61A54.12,54.12,0,0,0,54.1,4.19v4A50.27,50.27,0,0,1,95,29.27Z"/><path class="cls-1" d="M46.86,8.72a49.77,49.77,0,0,1,7.24-.53v-4h0a53.26,53.26,0,0,0-8.26.64A9,9,0,0,1,46.86,8.72Z"/><path class="cls-1" d="M105,75.9a9,9,0,0,1-3.65-.79,50.17,50.17,0,0,1-47.2,33.37,50.14,50.14,0,0,1-29.11-91,49.56,49.56,0,0,1,5.44-3.37A9,9,0,0,1,29,10.38a54.14,54.14,0,0,0,25.17,102.1,54.14,54.14,0,0,0,51.16-36.6Z"/></g></g></svg>